<mxfile host="app.diagrams.net" modified="2023-06-30T17:36:28.976Z" agent="Mozilla/5.0 (Windows NT 10.0; Win64; x64) AppleWebKit/537.36 (KHTML, like Gecko) Chrome/114.0.0.0 Safari/537.36" etag="gdwyeELrkfdUfJv6xBMw" version="21.5.2" type="device">
  <diagram id="C5RBs43oDa-KdzZeNtuy" name="Page-1">
    <mxGraphModel dx="1687" dy="899" grid="1" gridSize="10" guides="1" tooltips="1" connect="1" arrows="1" fold="1" page="1" pageScale="1" pageWidth="827" pageHeight="1169" math="0" shadow="0">
      <root>
        <mxCell id="WIyWlLk6GJQsqaUBKTNV-0" />
        <mxCell id="WIyWlLk6GJQsqaUBKTNV-1" parent="WIyWlLk6GJQsqaUBKTNV-0" />
        <mxCell id="4HZxIhLHEIFyz_cUBMiV-5" style="edgeStyle=orthogonalEdgeStyle;rounded=0;orthogonalLoop=1;jettySize=auto;html=1;" edge="1" parent="WIyWlLk6GJQsqaUBKTNV-1" source="4HZxIhLHEIFyz_cUBMiV-0" target="4HZxIhLHEIFyz_cUBMiV-4">
          <mxGeometry relative="1" as="geometry" />
        </mxCell>
        <mxCell id="4HZxIhLHEIFyz_cUBMiV-0" value="Usuário" style="shape=umlActor;verticalLabelPosition=bottom;verticalAlign=top;html=1;outlineConnect=0;" vertex="1" parent="WIyWlLk6GJQsqaUBKTNV-1">
          <mxGeometry x="100" y="220" width="30" height="60" as="geometry" />
        </mxCell>
        <mxCell id="4HZxIhLHEIFyz_cUBMiV-3" value="&lt;div style=&quot;&quot;&gt;&lt;span style=&quot;background-color: initial;&quot;&gt;Obter Categoria Automática&lt;/span&gt;&lt;/div&gt;&lt;div style=&quot;&quot;&gt;&lt;span style=&quot;background-color: initial;&quot;&gt;via ChatGPT&lt;/span&gt;&lt;/div&gt;&lt;div style=&quot;&quot;&gt;&lt;br&gt;&lt;/div&gt;&lt;div style=&quot;&quot;&gt;&lt;span style=&quot;background-color: initial;&quot;&gt;Este caso de uso descreve o processo de obtenção da categoria automática associada a um determinado texto de entrada (input) via ChatGPT.&lt;/span&gt;&lt;/div&gt;&lt;div style=&quot;&quot;&gt;&lt;br&gt;&lt;/div&gt;&lt;div style=&quot;&quot;&gt;Tabelas no banco de dados utilizadas:&lt;/div&gt;&lt;div style=&quot;&quot;&gt;Categoria Automática;&lt;/div&gt;&lt;div style=&quot;&quot;&gt;Categoria;&lt;/div&gt;" style="text;html=1;strokeColor=none;fillColor=none;align=left;verticalAlign=middle;whiteSpace=wrap;rounded=0;" vertex="1" parent="WIyWlLk6GJQsqaUBKTNV-1">
          <mxGeometry x="211" y="30" width="406" height="120" as="geometry" />
        </mxCell>
        <mxCell id="4HZxIhLHEIFyz_cUBMiV-9" style="edgeStyle=orthogonalEdgeStyle;rounded=0;orthogonalLoop=1;jettySize=auto;html=1;" edge="1" parent="WIyWlLk6GJQsqaUBKTNV-1" source="4HZxIhLHEIFyz_cUBMiV-4" target="4HZxIhLHEIFyz_cUBMiV-8">
          <mxGeometry relative="1" as="geometry" />
        </mxCell>
        <mxCell id="4HZxIhLHEIFyz_cUBMiV-4" value="Usuário deseja obter a Categoria Automática para um texto específico (input)" style="rounded=1;whiteSpace=wrap;html=1;fontSize=12;glass=0;strokeWidth=1;shadow=0;" vertex="1" parent="WIyWlLk6GJQsqaUBKTNV-1">
          <mxGeometry x="179" y="225" width="250" height="50" as="geometry" />
        </mxCell>
        <mxCell id="4HZxIhLHEIFyz_cUBMiV-11" style="edgeStyle=orthogonalEdgeStyle;rounded=0;orthogonalLoop=1;jettySize=auto;html=1;" edge="1" parent="WIyWlLk6GJQsqaUBKTNV-1" source="4HZxIhLHEIFyz_cUBMiV-8" target="4HZxIhLHEIFyz_cUBMiV-10">
          <mxGeometry relative="1" as="geometry" />
        </mxCell>
        <mxCell id="4HZxIhLHEIFyz_cUBMiV-8" value="Usuário fornece o texto de entrada (input)" style="rounded=1;whiteSpace=wrap;html=1;fontSize=12;glass=0;strokeWidth=1;shadow=0;" vertex="1" parent="WIyWlLk6GJQsqaUBKTNV-1">
          <mxGeometry x="469" y="225" width="176" height="50" as="geometry" />
        </mxCell>
        <mxCell id="4HZxIhLHEIFyz_cUBMiV-13" style="edgeStyle=orthogonalEdgeStyle;rounded=0;orthogonalLoop=1;jettySize=auto;html=1;" edge="1" parent="WIyWlLk6GJQsqaUBKTNV-1" source="4HZxIhLHEIFyz_cUBMiV-10" target="4HZxIhLHEIFyz_cUBMiV-12">
          <mxGeometry relative="1" as="geometry" />
        </mxCell>
        <mxCell id="4HZxIhLHEIFyz_cUBMiV-14" value="SIM" style="edgeLabel;html=1;align=center;verticalAlign=middle;resizable=0;points=[];" vertex="1" connectable="0" parent="4HZxIhLHEIFyz_cUBMiV-13">
          <mxGeometry x="-0.3333" relative="1" as="geometry">
            <mxPoint x="2" y="-15" as="offset" />
          </mxGeometry>
        </mxCell>
        <mxCell id="4HZxIhLHEIFyz_cUBMiV-23" style="edgeStyle=orthogonalEdgeStyle;rounded=0;orthogonalLoop=1;jettySize=auto;html=1;entryX=0.5;entryY=0;entryDx=0;entryDy=0;" edge="1" parent="WIyWlLk6GJQsqaUBKTNV-1" source="4HZxIhLHEIFyz_cUBMiV-10" target="4HZxIhLHEIFyz_cUBMiV-22">
          <mxGeometry relative="1" as="geometry" />
        </mxCell>
        <mxCell id="4HZxIhLHEIFyz_cUBMiV-24" value="NÃO" style="edgeLabel;html=1;align=center;verticalAlign=middle;resizable=0;points=[];" vertex="1" connectable="0" parent="4HZxIhLHEIFyz_cUBMiV-23">
          <mxGeometry x="0.2389" y="1" relative="1" as="geometry">
            <mxPoint x="21" as="offset" />
          </mxGeometry>
        </mxCell>
        <mxCell id="4HZxIhLHEIFyz_cUBMiV-10" value="Existe Categoria Automática associada input informado?" style="rhombus;whiteSpace=wrap;html=1;shadow=0;fontFamily=Helvetica;fontSize=12;align=center;strokeWidth=1;spacing=6;spacingTop=-4;" vertex="1" parent="WIyWlLk6GJQsqaUBKTNV-1">
          <mxGeometry x="486" y="345" width="142" height="110" as="geometry" />
        </mxCell>
        <mxCell id="4HZxIhLHEIFyz_cUBMiV-18" style="edgeStyle=orthogonalEdgeStyle;rounded=0;orthogonalLoop=1;jettySize=auto;html=1;entryX=1;entryY=0.5;entryDx=0;entryDy=0;" edge="1" parent="WIyWlLk6GJQsqaUBKTNV-1" source="4HZxIhLHEIFyz_cUBMiV-12" target="4HZxIhLHEIFyz_cUBMiV-16">
          <mxGeometry relative="1" as="geometry" />
        </mxCell>
        <mxCell id="4HZxIhLHEIFyz_cUBMiV-21" value="FIM" style="edgeLabel;html=1;align=center;verticalAlign=middle;resizable=0;points=[];" vertex="1" connectable="0" parent="4HZxIhLHEIFyz_cUBMiV-18">
          <mxGeometry x="0.6036" y="1" relative="1" as="geometry">
            <mxPoint x="-64" y="24" as="offset" />
          </mxGeometry>
        </mxCell>
        <mxCell id="4HZxIhLHEIFyz_cUBMiV-12" value="Retorna Categoria Automática" style="rounded=1;whiteSpace=wrap;html=1;fontSize=12;glass=0;strokeWidth=1;shadow=0;" vertex="1" parent="WIyWlLk6GJQsqaUBKTNV-1">
          <mxGeometry x="253" y="375" width="176" height="50" as="geometry" />
        </mxCell>
        <mxCell id="4HZxIhLHEIFyz_cUBMiV-16" value="" style="ellipse;html=1;shape=endState;fillColor=strokeColor;" vertex="1" parent="WIyWlLk6GJQsqaUBKTNV-1">
          <mxGeometry x="100" y="385" width="30" height="30" as="geometry" />
        </mxCell>
        <mxCell id="4HZxIhLHEIFyz_cUBMiV-29" style="edgeStyle=orthogonalEdgeStyle;rounded=0;orthogonalLoop=1;jettySize=auto;html=1;" edge="1" parent="WIyWlLk6GJQsqaUBKTNV-1" source="4HZxIhLHEIFyz_cUBMiV-22" target="4HZxIhLHEIFyz_cUBMiV-25">
          <mxGeometry relative="1" as="geometry" />
        </mxCell>
        <mxCell id="4HZxIhLHEIFyz_cUBMiV-32" style="edgeStyle=orthogonalEdgeStyle;rounded=0;orthogonalLoop=1;jettySize=auto;html=1;" edge="1" parent="WIyWlLk6GJQsqaUBKTNV-1" source="4HZxIhLHEIFyz_cUBMiV-22" target="4HZxIhLHEIFyz_cUBMiV-31">
          <mxGeometry relative="1" as="geometry" />
        </mxCell>
        <mxCell id="4HZxIhLHEIFyz_cUBMiV-22" value="Sistema busca o input no ChatGPT" style="rounded=1;whiteSpace=wrap;html=1;fontSize=12;glass=0;strokeWidth=1;shadow=0;" vertex="1" parent="WIyWlLk6GJQsqaUBKTNV-1">
          <mxGeometry x="469" y="515" width="176" height="50" as="geometry" />
        </mxCell>
        <mxCell id="4HZxIhLHEIFyz_cUBMiV-25" value="Texto enviado para o ChatGPT:&lt;br&gt;&lt;div&gt;Dentre as categorias abaixo, me informe qual a mais adequada ao texto &quot;&amp;lt;input&amp;gt;&quot;. Me responda somente a categoria mais adequada. Caso o texto não se encaixe em nenhuma das categorias listadas, favor definir em &quot;Outros&quot;:&lt;/div&gt;&lt;div&gt;Cartão de crédito&lt;/div&gt;&lt;div&gt;Cultura&lt;/div&gt;&lt;div&gt;Alimentação&lt;/div&gt;&lt;div&gt;Família e filhos&lt;/div&gt;&lt;div&gt;Educação&lt;/div&gt;&lt;div&gt;Energia elétrica&lt;/div&gt;&lt;div&gt;Atividades físicas&lt;/div&gt;&lt;div&gt;Presentes e doações&lt;/div&gt;&lt;div&gt;Saúde&lt;/div&gt;&lt;div&gt;Casa&lt;/div&gt;&lt;div&gt;Lazer e hobbies&lt;/div&gt;&lt;div&gt;Dívidas e empréstimos&lt;/div&gt;&lt;div&gt;Telefonia&lt;/div&gt;&lt;div&gt;Outros&lt;/div&gt;&lt;div&gt;Animais de estimação&lt;/div&gt;&lt;div&gt;Mercado&lt;/div&gt;&lt;div&gt;Serviços de streaming&lt;/div&gt;&lt;div&gt;Transporte&lt;/div&gt;&lt;div&gt;Viagens&lt;/div&gt;&lt;div&gt;Internet&lt;/div&gt;&lt;div&gt;Bares e restaurantes&lt;/div&gt;&lt;div&gt;Cuidados pessoais&lt;/div&gt;&lt;div&gt;Compras&lt;/div&gt;&lt;div&gt;Impostos e taxas&lt;/div&gt;&lt;div&gt;Trabalho&lt;/div&gt;" style="shape=note2;boundedLbl=1;whiteSpace=wrap;html=1;size=25;verticalAlign=top;align=left;" vertex="1" parent="WIyWlLk6GJQsqaUBKTNV-1">
          <mxGeometry x="729" y="295" width="309" height="490" as="geometry" />
        </mxCell>
        <mxCell id="4HZxIhLHEIFyz_cUBMiV-37" style="edgeStyle=orthogonalEdgeStyle;rounded=0;orthogonalLoop=1;jettySize=auto;html=1;" edge="1" parent="WIyWlLk6GJQsqaUBKTNV-1" source="4HZxIhLHEIFyz_cUBMiV-31" target="4HZxIhLHEIFyz_cUBMiV-35">
          <mxGeometry relative="1" as="geometry" />
        </mxCell>
        <mxCell id="4HZxIhLHEIFyz_cUBMiV-39" value="NÃO" style="edgeLabel;html=1;align=center;verticalAlign=middle;resizable=0;points=[];" vertex="1" connectable="0" parent="4HZxIhLHEIFyz_cUBMiV-37">
          <mxGeometry x="-0.3283" y="1" relative="1" as="geometry">
            <mxPoint x="13" y="-11" as="offset" />
          </mxGeometry>
        </mxCell>
        <mxCell id="4HZxIhLHEIFyz_cUBMiV-41" style="edgeStyle=orthogonalEdgeStyle;rounded=0;orthogonalLoop=1;jettySize=auto;html=1;" edge="1" parent="WIyWlLk6GJQsqaUBKTNV-1" source="4HZxIhLHEIFyz_cUBMiV-31" target="4HZxIhLHEIFyz_cUBMiV-44">
          <mxGeometry relative="1" as="geometry">
            <mxPoint x="557" y="775" as="targetPoint" />
          </mxGeometry>
        </mxCell>
        <mxCell id="4HZxIhLHEIFyz_cUBMiV-42" value="SIM" style="edgeLabel;html=1;align=center;verticalAlign=middle;resizable=0;points=[];" vertex="1" connectable="0" parent="4HZxIhLHEIFyz_cUBMiV-41">
          <mxGeometry x="-0.6667" y="2" relative="1" as="geometry">
            <mxPoint x="10" as="offset" />
          </mxGeometry>
        </mxCell>
        <mxCell id="4HZxIhLHEIFyz_cUBMiV-31" value="Resposta do ChatGPT é válida (não nula e não vazia)?" style="rhombus;whiteSpace=wrap;html=1;shadow=0;fontFamily=Helvetica;fontSize=12;align=center;strokeWidth=1;spacing=6;spacingTop=-4;" vertex="1" parent="WIyWlLk6GJQsqaUBKTNV-1">
          <mxGeometry x="495.5" y="605" width="123" height="120" as="geometry" />
        </mxCell>
        <mxCell id="4HZxIhLHEIFyz_cUBMiV-33" style="edgeStyle=orthogonalEdgeStyle;rounded=0;orthogonalLoop=1;jettySize=auto;html=1;entryX=0.533;entryY=0.8;entryDx=0;entryDy=0;entryPerimeter=0;" edge="1" parent="WIyWlLk6GJQsqaUBKTNV-1" source="4HZxIhLHEIFyz_cUBMiV-35" target="4HZxIhLHEIFyz_cUBMiV-16">
          <mxGeometry relative="1" as="geometry">
            <mxPoint x="179" y="665" as="targetPoint" />
          </mxGeometry>
        </mxCell>
        <mxCell id="4HZxIhLHEIFyz_cUBMiV-35" value="Retorna o objeto null" style="rounded=1;whiteSpace=wrap;html=1;fontSize=12;glass=0;strokeWidth=1;shadow=0;" vertex="1" parent="WIyWlLk6GJQsqaUBKTNV-1">
          <mxGeometry x="253" y="640" width="176" height="50" as="geometry" />
        </mxCell>
        <mxCell id="4HZxIhLHEIFyz_cUBMiV-46" style="edgeStyle=orthogonalEdgeStyle;rounded=0;orthogonalLoop=1;jettySize=auto;html=1;" edge="1" parent="WIyWlLk6GJQsqaUBKTNV-1" source="4HZxIhLHEIFyz_cUBMiV-44" target="4HZxIhLHEIFyz_cUBMiV-35">
          <mxGeometry relative="1" as="geometry" />
        </mxCell>
        <mxCell id="4HZxIhLHEIFyz_cUBMiV-47" value="NÃO" style="edgeLabel;html=1;align=center;verticalAlign=middle;resizable=0;points=[];" vertex="1" connectable="0" parent="4HZxIhLHEIFyz_cUBMiV-46">
          <mxGeometry x="-0.897" y="-3" relative="1" as="geometry">
            <mxPoint x="-1" y="-7" as="offset" />
          </mxGeometry>
        </mxCell>
        <mxCell id="4HZxIhLHEIFyz_cUBMiV-49" style="edgeStyle=orthogonalEdgeStyle;rounded=0;orthogonalLoop=1;jettySize=auto;html=1;" edge="1" parent="WIyWlLk6GJQsqaUBKTNV-1" source="4HZxIhLHEIFyz_cUBMiV-44" target="4HZxIhLHEIFyz_cUBMiV-48">
          <mxGeometry relative="1" as="geometry" />
        </mxCell>
        <mxCell id="4HZxIhLHEIFyz_cUBMiV-50" value="SIM" style="edgeLabel;html=1;align=center;verticalAlign=middle;resizable=0;points=[];" vertex="1" connectable="0" parent="4HZxIhLHEIFyz_cUBMiV-49">
          <mxGeometry x="-0.5641" relative="1" as="geometry">
            <mxPoint as="offset" />
          </mxGeometry>
        </mxCell>
        <mxCell id="4HZxIhLHEIFyz_cUBMiV-44" value="&lt;div style=&quot;&quot;&gt;&lt;span style=&quot;background-color: initial;&quot;&gt;Existe Categoria com base na resposta recebida pelo ChatGPT?&lt;/span&gt;&lt;/div&gt;" style="rhombus;whiteSpace=wrap;html=1;shadow=0;fontFamily=Helvetica;fontSize=12;align=center;strokeWidth=1;spacing=6;spacingTop=-4;" vertex="1" parent="WIyWlLk6GJQsqaUBKTNV-1">
          <mxGeometry x="496.75" y="780" width="120.25" height="120" as="geometry" />
        </mxCell>
        <mxCell id="4HZxIhLHEIFyz_cUBMiV-53" style="edgeStyle=orthogonalEdgeStyle;rounded=0;orthogonalLoop=1;jettySize=auto;html=1;" edge="1" parent="WIyWlLk6GJQsqaUBKTNV-1" source="4HZxIhLHEIFyz_cUBMiV-48" target="4HZxIhLHEIFyz_cUBMiV-51">
          <mxGeometry relative="1" as="geometry" />
        </mxCell>
        <mxCell id="4HZxIhLHEIFyz_cUBMiV-48" value="Salvar uma nova Categoria Automática com os campos:&lt;br&gt;Texto de Entrada;&lt;br&gt;Categoria;&lt;br&gt;Resposta do ChatGPT;&lt;br&gt;" style="rounded=1;whiteSpace=wrap;html=1;fontSize=12;glass=0;strokeWidth=1;shadow=0;" vertex="1" parent="WIyWlLk6GJQsqaUBKTNV-1">
          <mxGeometry x="468.88" y="960" width="176" height="90" as="geometry" />
        </mxCell>
        <mxCell id="4HZxIhLHEIFyz_cUBMiV-51" value="" style="ellipse;html=1;shape=endState;fillColor=strokeColor;" vertex="1" parent="WIyWlLk6GJQsqaUBKTNV-1">
          <mxGeometry x="100" y="990" width="30" height="30" as="geometry" />
        </mxCell>
        <mxCell id="4HZxIhLHEIFyz_cUBMiV-54" value="FIM" style="text;html=1;align=center;verticalAlign=middle;resizable=0;points=[];autosize=1;strokeColor=none;fillColor=none;" vertex="1" parent="WIyWlLk6GJQsqaUBKTNV-1">
          <mxGeometry x="130" y="970" width="40" height="30" as="geometry" />
        </mxCell>
      </root>
    </mxGraphModel>
  </diagram>
</mxfile>
